<svg xmlns="http://www.w3.org/2000/svg" viewBox="0 0 900 900" role="img" aria-labelledby="title desc">
  <title id="title">Apothecary detail</title>
  <desc id="desc">Warm apothecary product detail illustration for oil products.</desc>
  <rect width="900" height="900" fill="#efe0bd"/>
  <rect x="86" y="96" width="728" height="708" rx="34" fill="#fffaf0" stroke="#26351f" stroke-width="8"/>
  <g transform="translate(450 392)">
    <rect x="-220" y="120" width="440" height="70" rx="18" fill="#8d5132"/>
    <rect x="-165" y="-160" width="120" height="285" rx="36" fill="#a96732" stroke="#2b1b11" stroke-width="8"/>
    <rect x="45" y="-210" width="120" height="335" rx="38" fill="#b87b35" stroke="#2b1b11" stroke-width="8"/>
    <rect x="-144" y="-75" width="78" height="135" rx="12" fill="#fff4d8"/>
    <rect x="66" y="-115" width="78" height="175" rx="12" fill="#fff4d8"/>
    <path d="M-8-10c17-61 17-61 33 0 50-36 50-36 25 20 62 2 62 2 6 30 46 40 46 40-15 25-17 61-17 61-33 0-50 36-50 36-25-20-62-2-62-2-6-30-46-40-46-40 15-25z" fill="#49623b"/>
  </g>
  <text x="450" y="688" fill="#26351f" font-family="Georgia, serif" font-size="46" font-weight="800" text-anchor="middle">CLEAN LABEL</text>
  <text x="450" y="735" fill="#171611" font-family="Arial, sans-serif" font-size="23" font-weight="700" text-anchor="middle">Carrier oil, serving, and COA details pending</text>
</svg>
