<svg xmlns="http://www.w3.org/2000/svg" viewBox="0 0 900 900" role="img" aria-labelledby="title desc">
  <title id="title">Gummy label details</title>
  <desc id="desc">Adult-oriented label detail panel with compliance icons.</desc>
  <rect width="900" height="900" fill="#fff4dc"/>
  <rect x="96" y="96" width="708" height="708" rx="30" fill="#f8efd9" stroke="#51315c" stroke-width="8"/>
  <text x="450" y="190" fill="#26351f" font-family="Georgia, serif" font-size="52" font-weight="800" text-anchor="middle">LABEL DETAIL</text>
  <g transform="translate(190 290)" fill="#171611" font-family="Arial, sans-serif" font-weight="700">
    <text x="0" y="0" font-size="28">Ingredients reviewed</text>
    <line x1="0" y1="28" x2="520" y2="28" stroke="#51315c" stroke-width="4" stroke-dasharray="6 10"/>
    <text x="0" y="86" font-size="24">COA link reviewed</text>
    <text x="0" y="132" font-size="24">Batch number reviewed</text>
    <text x="0" y="178" font-size="24">Adult hemp product notice</text>
    <text x="0" y="224" font-size="24">Shipping restriction reminder</text>
  </g>
  <g transform="translate(194 615)">
    <circle cx="0" cy="0" r="48" fill="#fffaf0" stroke="#171611" stroke-width="5"/>
    <text x="0" y="10" fill="#171611" font-family="Arial, sans-serif" font-size="22" font-weight="900" text-anchor="middle">21+</text>
    <circle cx="166" cy="0" r="48" fill="#fffaf0" stroke="#171611" stroke-width="5"/>
    <path d="M166-28c8 29 8 29 15 0 24 17 24 17 12 10 30 1 30 1 3 14 22 19 22 19-7 12-8 29-8 29-15 0-24 17-24 17-12-10-30-1-30-1-3-14-22-19-22-19 7-12z" fill="#49623b"/>
    <circle cx="332" cy="0" r="48" fill="#fffaf0" stroke="#171611" stroke-width="5"/>
    <path d="M307 2h50m-25-25v50" stroke="#49623b" stroke-width="10" stroke-linecap="round"/>
    <circle cx="498" cy="0" r="48" fill="#fffaf0" stroke="#171611" stroke-width="5"/>
    <path d="M475 20l46-46m-43 4l43 43" stroke="#51315c" stroke-width="9" stroke-linecap="round"/>
  </g>
</svg>
