<svg xmlns="http://www.w3.org/2000/svg" viewBox="0 0 900 900" role="img" aria-labelledby="title desc">
  <title id="title">Mega CBG Gummy Bear</title>
  <desc id="desc">Adult CBG gummy bear package with harvest gold and forest green label style.</desc>
  <rect width="900" height="900" fill="#f8efd9"/>
  <rect x="92" y="92" width="716" height="716" rx="46" fill="#11180e" stroke="#b77b28" stroke-width="12"/>
  <path d="M132 150h636v184H132z" fill="#2a1b12" stroke="#e8be5d" stroke-width="4"/>
  <text x="450" y="230" fill="#fff5d8" font-family="Georgia, serif" font-size="52" font-weight="800" text-anchor="middle">MEGA CBG</text>
  <text x="450" y="300" fill="#e8be5d" font-family="Georgia, serif" font-size="60" font-weight="800" text-anchor="middle">GUMMY BEAR</text>
  <g transform="translate(450 525)">
    <circle cx="-82" cy="-138" r="66" fill="#b74d35" opacity=".96"/>
    <circle cx="82" cy="-138" r="66" fill="#b74d35" opacity=".96"/>
    <path d="M-160-90c0-105 68-174 160-174s160 69 160 174c0 134-78 254-160 254S-160 44-160-90z" fill="#b74d35" stroke="#f8efd9" stroke-width="8"/>
    <circle cx="-54" cy="-92" r="11" fill="#15130f"/>
    <circle cx="54" cy="-92" r="11" fill="#15130f"/>
    <path d="M-38-30c25 22 51 22 76 0" fill="none" stroke="#15130f" stroke-width="10" stroke-linecap="round"/>
  </g>
  <rect x="160" y="710" width="580" height="62" rx="31" fill="#fff4d8"/>
  <text x="450" y="751" fill="#121a10" font-family="Arial, sans-serif" font-size="25" font-weight="800" text-anchor="middle">LIMITED BATCH • ADULT HEMP PRODUCT • 21+</text>
</svg>
